<svg width="24" height="24" viewBox="0 0 24 24" fill="none" xmlns="http://www.w3.org/2000/svg">
<g clip-path="url(#clip0)">
<path d="M22.1632 2.75224H19.6158C19.4207 2.75224 19.2626 2.90988 19.2626 3.10446V4.23345C19.2626 4.61562 18.9509 4.92659 18.5676 4.92659C18.1844 4.92659 17.8726 4.61562 17.8726 4.23345V3.10442C17.8726 2.90988 17.7145 2.7522 17.5195 2.7522H5.02116C4.82611 2.7522 4.668 2.90984 4.668 3.10442V4.2334C4.668 4.61557 4.35623 4.92654 3.97303 4.92654C3.58983 4.92654 3.27806 4.61557 3.27806 4.2334V3.10442C3.27806 2.90988 3.11995 2.7522 2.92491 2.7522H0.353156C0.158109 2.75224 0 2.90988 0 3.10442V20.1273C0 20.3218 0.158109 20.4794 0.353156 20.4794H12.1813C12.3023 20.4794 12.4149 20.4176 12.4797 20.3156C12.5444 20.2136 12.5522 20.0857 12.5004 19.9765C12.1405 19.2184 11.958 18.4057 11.958 17.561C11.958 14.4441 14.5006 11.9083 17.6259 11.9083C19.2628 11.9083 20.8196 12.6144 21.8972 13.8455C21.994 13.9562 22.1495 13.9953 22.2873 13.9437C22.4251 13.8921 22.5164 13.7607 22.5164 13.6139V3.10442C22.5164 2.90988 22.3582 2.75224 22.1632 2.75224Z" fill="#E6F7FF"/>
<path d="M6.15411 8.93469H3.87879C3.68374 8.93469 3.52563 9.09233 3.52563 9.28691V11.5561C3.52563 11.7506 3.68374 11.9083 3.87879 11.9083H6.15411C6.34916 11.9083 6.50727 11.7506 6.50727 11.5561V9.28691C6.50722 9.09233 6.34911 8.93469 6.15411 8.93469Z" fill="#465A65"/>
<path d="M10.3234 8.93469H8.0481C7.85306 8.93469 7.69495 9.09233 7.69495 9.28691V11.5561C7.69495 11.7506 7.85306 11.9083 8.0481 11.9083H10.3234C10.5185 11.9083 10.6766 11.7506 10.6766 11.5561V9.28691C10.6766 9.09233 10.5185 8.93469 10.3234 8.93469Z" fill="#465A65"/>
<path d="M14.4926 8.93469H12.2173C12.0222 8.93469 11.8641 9.09233 11.8641 9.28691V11.5561C11.8641 11.7506 12.0222 11.9083 12.2173 11.9083H14.4926C14.6877 11.9083 14.8458 11.7506 14.8458 11.5561V9.28691C14.8458 9.09233 14.6877 8.93469 14.4926 8.93469Z" fill="#465A65"/>
<path d="M18.6618 8.93469H16.3865C16.1914 8.93469 16.0333 9.09233 16.0333 9.28691V11.5561C16.0333 11.7506 16.1914 11.9083 16.3865 11.9083H18.6618C18.8568 11.9083 19.0149 11.7506 19.0149 11.5561V9.28691C19.0149 9.09233 18.8568 8.93469 18.6618 8.93469Z" fill="#465A65"/>
<path d="M6.15411 13.8063H3.87879C3.68374 13.8063 3.52563 13.9639 3.52563 14.1584V16.4277C3.52563 16.6222 3.68374 16.7798 3.87879 16.7798H6.15411C6.34916 16.7798 6.50727 16.6222 6.50727 16.4277V14.1584C6.50722 13.964 6.34911 13.8063 6.15411 13.8063Z" fill="#465A65"/>
<path d="M10.3234 13.8063H8.0481C7.85306 13.8063 7.69495 13.9639 7.69495 14.1584V16.4277C7.69495 16.6222 7.85306 16.7798 8.0481 16.7798H10.3234C10.5185 16.7798 10.6766 16.6222 10.6766 16.4277V14.1584C10.6766 13.964 10.5185 13.8063 10.3234 13.8063Z" fill="#465A65"/>
<path d="M22.5164 5.27856H0V8.09036H22.5164V5.27856Z" fill="#D8D1D0"/>
<path d="M22.1753 2.75224H19.6157C19.4207 2.75224 19.2626 2.90988 19.2626 3.10446V4.23345C19.2626 4.61562 18.9508 4.92659 18.5676 4.92659C18.1843 4.92659 17.8726 4.61562 17.8726 4.23345V3.10442C17.8726 2.90988 17.7145 2.7522 17.5194 2.7522H5.0211C4.82605 2.7522 4.66794 2.90984 4.66794 3.10442V4.2334C4.66794 4.61557 4.35618 4.92654 3.97298 4.92654C3.58977 4.92654 3.27801 4.61557 3.27801 4.2334V3.10442C3.27801 2.90988 3.1199 2.7522 2.92485 2.7522H0.365241C0.170194 2.7522 0.012085 2.90984 0.012085 3.10442V6.91657C0.012085 7.1111 0.170194 7.26879 0.365241 7.26879H22.1753C22.3703 7.26879 22.5284 7.11115 22.5284 6.91657V3.10442C22.5284 2.90988 22.3703 2.75224 22.1753 2.75224Z" fill="#91D5FF"/>
<path d="M0.012085 5.97742V6.91661C0.012085 7.11114 0.170194 7.26883 0.365241 7.26883H22.1753C22.3703 7.26883 22.5284 7.11119 22.5284 6.91661V5.97742H0.012085Z" fill="#595959"/>
<path d="M3.97294 0.0819092C3.2003 0.0819092 2.57166 0.708862 2.57166 1.47944V4.23339C2.57166 5.00402 3.20025 5.63092 3.97294 5.63092C4.74558 5.63092 5.37422 5.00397 5.37422 4.23339V1.47944C5.37422 0.708862 4.74562 0.0819092 3.97294 0.0819092Z" fill="#BAE7FF"/>
<path d="M18.5677 0.0819092C17.7951 0.0819092 17.1665 0.708862 17.1665 1.47944V4.23339C17.1665 5.00402 17.7951 5.63092 18.5678 5.63092C19.3404 5.63092 19.969 5.00397 19.969 4.23339V1.47944C19.969 0.708862 19.3404 0.0819092 18.5677 0.0819092Z" fill="#BAE7FF"/>
<path d="M17.6258 11.204C14.1111 11.204 11.2517 14.0558 11.2517 17.5611C11.2517 21.0663 14.1111 23.9181 17.6258 23.9181C21.1406 23.9181 24 21.0663 24 17.5611C24 14.0558 21.1406 11.204 17.6258 11.204Z" fill="#BAE7FF"/>
<path d="M17.6259 11.204C17.3996 11.204 17.1762 11.216 16.9561 11.239C20.1571 11.574 22.6604 14.2814 22.6604 17.5611C22.6604 20.8407 20.1571 23.5481 16.9561 23.8831C17.1762 23.9061 17.3996 23.9181 17.6259 23.9181C21.1406 23.9181 24 21.0663 24 17.5611C24 14.0558 21.1406 11.204 17.6259 11.204Z" fill="#91D5FF"/>
<path d="M17.6258 12.6836C14.9292 12.6836 12.7354 14.8716 12.7354 17.561C12.7354 20.2503 14.9292 22.4384 17.6258 22.4384C20.3224 22.4384 22.5163 20.2503 22.5163 17.561C22.5163 14.8716 20.3224 12.6836 17.6258 12.6836Z" fill="#EFE7E4"/>
<path d="M17.6258 12.6836C17.4064 12.6836 17.1903 12.6984 16.9784 12.7264C19.3701 13.0433 21.2215 15.0905 21.2215 17.561C21.2215 20.0315 19.3701 22.0787 16.9784 22.3956C17.1903 22.4237 17.4064 22.4385 17.6258 22.4385C20.3225 22.4385 22.5163 20.2504 22.5163 17.5611C22.5163 14.8716 20.3225 12.6836 17.6258 12.6836Z" fill="#D8D1D0"/>
<path d="M17.6144 17.2074C17.4193 17.2074 17.2612 17.0498 17.2612 16.8552V14.1586C17.2612 13.964 17.4193 13.8064 17.6144 13.8064C17.8094 13.8064 17.9675 13.964 17.9675 14.1586V16.8552C17.9675 17.0498 17.8094 17.2074 17.6144 17.2074Z" fill="#546F7A"/>
<path d="M15.8525 19.9069C15.7671 19.9069 15.6815 19.8763 15.6136 19.8141C15.47 19.6825 15.4605 19.4598 15.5925 19.3165L16.9107 17.8854C17.0426 17.7422 17.266 17.7327 17.4096 17.8643C17.5532 17.9959 17.5627 18.2187 17.4307 18.362L16.1126 19.793C16.043 19.8686 15.9479 19.9069 15.8525 19.9069Z" fill="#546F7A"/>
<path d="M17.6142 16.5031C17.0262 16.5031 16.5477 16.9802 16.5477 17.5667C16.5477 18.1532 17.0262 18.6303 17.6142 18.6303C18.2023 18.6303 18.6807 18.1532 18.6807 17.5667C18.6807 16.9802 18.2023 16.5031 17.6142 16.5031Z" fill="#BAE7FF"/>
</g>
<defs>
<clipPath id="clip0">
<rect width="24" height="24" fill="white"/>
</clipPath>
</defs>
</svg>
