<svg width="24" height="24" viewBox="0 0 24 24" fill="none" xmlns="http://www.w3.org/2000/svg">
<path d="M6.58908 21.8312C5.4875 20.5794 4.38595 19.2775 3.68492 17.7253C2.98394 16.0729 2.78363 14.1702 3.13415 12.3677C3.48467 10.5651 4.28578 8.86265 5.43746 7.4106C5.33733 8.6624 5.78797 9.96424 6.63917 10.9156C6.13844 8.51218 6.9396 5.90845 8.54187 4.00575C10.1441 2.10305 12.3473 0.8512 14.6506 0C13.499 1.20172 13.3487 3.10442 13.7994 4.70674C14.25 6.30901 15.2014 7.71102 16.0526 9.16308C16.9038 10.6151 17.705 12.1173 17.755 13.7696C18.2057 12.9184 18.7064 12.0672 19.0068 11.1159C19.3073 10.1645 19.4575 9.16308 19.2071 8.21171C20.1084 9.3133 20.6092 10.4148 20.8595 11.8169C21.1098 13.2189 21.0598 14.6709 20.9096 16.0729C20.7093 17.6252 20.3087 19.2275 19.4575 20.5293C18.4561 22.0815 16.8538 23.1831 15.1013 23.7839C11.9968 24.3347 8.94243 23.8841 6.58908 21.8312Z" fill="#F3705A"/>
<path d="M10.3946 23.6837C14.5005 25.286 18.5562 20.4291 16.303 16.6737C16.303 16.6236 16.2529 16.6236 16.2529 16.5736C16.4532 18.6265 15.9525 20.1287 15.0011 20.9799C15.5019 19.7782 15.1514 18.3762 14.5505 17.1745C13.9496 16.0228 13.0984 14.9713 12.4475 13.8697C11.7965 12.7181 11.2959 11.4162 11.5963 10.1144C10.3946 11.0157 9.54338 12.3676 9.19286 13.8197C8.84235 15.2717 9.04265 16.874 9.69359 18.226C8.94252 17.6752 8.39175 16.7739 8.34166 15.8225C7.5405 16.7739 7.03982 18.0257 7.08986 19.2775C7.08991 21.2303 8.64209 22.9827 10.3946 23.6837Z" fill="#FFD15C"/>
</svg>
