<svg width="24" height="24" viewBox="0 0 24 24" fill="none" xmlns="http://www.w3.org/2000/svg">
<g clip-path="url(#clip0)">
<path d="M15.5133 1.33582C14.6992 1.33582 14.0392 1.99579 14.0392 2.80987C14.0392 3.62396 14.6992 4.28393 15.5133 4.28393C16.3273 4.28393 16.9873 3.62396 16.9873 2.80987C16.9913 1.99573 16.3313 1.33582 15.5133 1.33582Z" fill="#595959"/>
<path d="M15.5133 0.00402832C13.9641 0.00402832 12.7074 1.26468 12.7074 2.80989C12.7074 4.35902 13.968 5.61973 15.5172 5.61973C17.0664 5.61973 18.3271 4.35908 18.3271 2.80989C18.327 1.26468 17.0624 0.00402832 15.5133 0.00402832ZM15.5133 4.28786C14.6992 4.28786 14.0392 3.62789 14.0392 2.8138C14.0392 1.99972 14.6992 1.33975 15.5133 1.33975C16.3273 1.33975 16.9873 1.99972 16.9873 2.8138C16.9913 3.62789 16.3313 4.28786 15.5133 4.28786Z" fill="#91D5FF"/>
<path d="M18.7538 8.52042C18.7538 8.01853 18.3467 7.61146 17.8448 7.61146H17.5089L16.1258 10.9706C15.8886 11.5357 15.118 11.5002 14.8927 10.9706L13.5096 7.60754H13.1776C12.6757 7.60754 12.2687 8.01462 12.2687 8.51253V15.7959H18.7498V8.52042H18.7538Z" fill="#BAE7FF"/>
<path d="M13.3121 22.6682H14.8454V19.5699C14.8454 19.2023 15.1418 18.902 15.5133 18.902C15.8808 18.902 16.1812 19.1984 16.1812 19.5699V22.6682H17.7145V17.1355H13.3081V22.6682H13.3121Z" fill="#595959"/>
<path d="M17.8489 6.27576H17.0703C16.8016 6.27576 16.5565 6.44173 16.4578 6.68674L15.5212 8.96302L14.5806 6.68674C14.4778 6.43776 14.2368 6.27576 13.9681 6.27576H13.1856C11.9487 6.27576 10.9448 7.28351 10.9448 8.51652V16.4678C10.9448 16.8353 11.2412 17.1357 11.6127 17.1357H11.9842V23.3323C11.9842 23.6998 12.2805 24.0001 12.652 24.0001H18.3902C18.7578 24.0001 19.0581 23.7038 19.0581 23.3323V17.1356H19.4256C19.7931 17.1356 20.0935 16.8392 20.0935 16.4677V8.52044C20.0935 7.28344 19.0858 6.27576 17.8489 6.27576ZM17.7224 22.6683H16.189V19.57C16.189 19.2024 15.8927 18.9021 15.5212 18.9021C15.1536 18.9021 14.8533 19.1985 14.8533 19.57V22.6683H13.32V17.1356H17.7264V22.6683H17.7224ZM12.2727 15.8038V8.52044C12.2727 8.01855 12.6798 7.61147 13.1817 7.61147H13.5176L14.9007 10.9745C15.126 11.5041 15.8966 11.5396 16.1338 10.9745L17.5169 7.61539H17.8528C18.3547 7.61539 18.7618 8.02246 18.7618 8.52435V15.8077H12.2727V15.8038Z" fill="#91D5FF"/>
<path d="M8.12712 1.33578C8.49464 1.33578 8.79498 1.03941 8.79498 0.66792C8.79498 0.296425 8.49073 0 8.12712 0H4.57435C4.20683 0 3.90649 0.296364 3.90649 0.667859V23.3321C3.90649 23.6996 4.20286 23.9999 4.57435 23.9999H8.12712C8.49464 23.9999 8.79498 23.7036 8.79498 23.3321C8.79498 22.9646 8.49861 22.6642 8.12712 22.6642H5.24619V20.795H8.12712C8.49464 20.795 8.79498 20.4986 8.79498 20.1272C8.79498 19.7557 8.49861 19.4593 8.12712 19.4593H5.24619V17.4991H6.62145C6.98898 17.4991 7.28931 17.2027 7.28931 16.8313C7.28931 16.4598 6.99295 16.1634 6.62145 16.1634H5.24619V14.3059H8.12712C8.49464 14.3059 8.79498 14.0096 8.79498 13.6381C8.79498 13.2706 8.49861 12.9702 8.12712 12.9702H5.24619V11.01H6.62145C6.98898 11.01 7.28931 10.7137 7.28931 10.3422C7.28931 9.97466 6.99295 9.67432 6.62145 9.67432H5.24619V7.82089H8.12712C8.49464 7.82089 8.79498 7.52452 8.79498 7.15303C8.79498 6.78551 8.49861 6.48517 8.12712 6.48517H5.24619V4.52102H6.62145C6.98898 4.52102 7.28931 4.22466 7.28931 3.85316C7.28931 3.48167 6.99295 3.1853 6.62145 3.1853H5.24619V1.30809H8.12712V1.33578Z" fill="#595959"/>
</g>
<defs>
<clipPath id="clip0">
<rect width="24" height="24" fill="white"/>
</clipPath>
</defs>
</svg>
