<svg width="53" height="16" viewBox="0 0 53 16" fill="none" xmlns="http://www.w3.org/2000/svg">
<path d="M9.48828 12.8711H3.0918V0.908203H0.572266V15H9.48828V12.8711ZM16.9199 0.673828C12.8086 0.673828 10.2305 3.47656 10.2305 7.95898C10.2305 12.4414 12.8086 15.2344 16.9199 15.2344C21.0215 15.2344 23.5996 12.4414 23.5996 7.95898C23.5996 3.47656 21.0215 0.673828 16.9199 0.673828ZM16.9199 2.82227C19.4297 2.82227 21.0312 4.81445 21.0312 7.95898C21.0312 11.0938 19.4297 13.0859 16.9199 13.0859C14.4004 13.0859 12.8086 11.0938 12.8086 7.95898C12.8086 4.81445 14.4004 2.82227 16.9199 2.82227ZM37.9453 9.12109V7.61719H32.0859V9.54102H35.4844L35.4746 9.77539C35.4355 11.748 33.9609 13.0957 31.832 13.0957C29.293 13.0957 27.7109 11.1133 27.7109 7.87109C27.7109 4.69727 29.2246 2.8125 31.7637 2.8125C33.4922 2.8125 34.8008 3.76953 35.2793 5.39062H37.8379C37.3789 2.56836 34.957 0.673828 31.7539 0.673828C27.6816 0.673828 25.1328 3.42773 25.1328 7.90039C25.1328 12.4414 27.6914 15.2344 31.8027 15.2344C35.6602 15.2344 37.9453 12.9395 37.9453 9.12109ZM46.2168 0.673828C42.1055 0.673828 39.5273 3.47656 39.5273 7.95898C39.5273 12.4414 42.1055 15.2344 46.2168 15.2344C50.3184 15.2344 52.8965 12.4414 52.8965 7.95898C52.8965 3.47656 50.3184 0.673828 46.2168 0.673828ZM46.2168 2.82227C48.7266 2.82227 50.3281 4.81445 50.3281 7.95898C50.3281 11.0938 48.7266 13.0859 46.2168 13.0859C43.6973 13.0859 42.1055 11.0938 42.1055 7.95898C42.1055 4.81445 43.6973 2.82227 46.2168 2.82227Z" fill="#262626"/>
</svg>
