<svg width="113" height="18" viewBox="0 0 113 18" fill="none" xmlns="http://www.w3.org/2000/svg">
<path d="M6.24609 15C9.25391 15 11.0801 13.4766 11.0801 10.9961C11.0801 9.13086 9.74219 7.75391 7.82812 7.56836V7.49023C9.27344 7.25586 10.3965 5.9375 10.3965 4.42383C10.3965 2.28516 8.74609 0.908203 6.1875 0.908203H0.337891V15H6.24609ZM2.85742 2.87109H5.55273C7.05664 2.87109 7.90625 3.56445 7.90625 4.79492C7.90625 6.10352 6.91992 6.8457 5.16211 6.8457H2.85742V2.87109ZM2.85742 13.0371V8.63281H5.5625C7.49609 8.63281 8.51172 9.38477 8.51172 10.8203C8.51172 12.2656 7.52539 13.0371 5.66992 13.0371H2.85742Z" fill="#F5222D"/>
<path d="M18.4625 7.60742L24.4977 0.908203H21.5875L16.0699 7.07031H15.9918V0.908203H13.4723V15H15.9918V8.57422H16.0699L21.8121 15H25.0348L18.4625 7.60742ZM32.6027 0.673828C28.4914 0.673828 25.9133 3.47656 25.9133 7.95898C25.9133 12.4414 28.4914 15.2344 32.6027 15.2344C36.7043 15.2344 39.2824 12.4414 39.2824 7.95898C39.2824 3.47656 36.7043 0.673828 32.6027 0.673828ZM32.6027 2.82227C35.1125 2.82227 36.7141 4.81445 36.7141 7.95898C36.7141 11.0938 35.1125 13.0859 32.6027 13.0859C30.0832 13.0859 28.4914 11.0938 28.4914 7.95898C28.4914 4.81445 30.0832 2.82227 32.6027 2.82227ZM56.4305 15V0.908203H53.5203L49.2039 11.543H49.1258L44.8094 0.908203H41.8895V15H44.1648V5H44.2332L48.3055 14.8828H50.0242L54.0965 5H54.1648V15H56.4305ZM68.725 15H71.3812L66.3812 0.908203H63.5395L58.5395 15H61.1371L62.3383 11.3574H67.5238L68.725 15ZM64.8969 3.39844H64.9652L66.9281 9.41406H62.9242L64.8969 3.39844ZM85.375 15V0.908203H82.8652V6.76758H76.0098V0.908203H73.4902V15H76.0098V8.88672H82.8652V15H85.375ZM92.152 9.35547L92.5523 3.02734H97.3473V12.8711H91.1949V12.793C91.8492 12.0215 92.0445 10.9375 92.152 9.35547ZM89.6813 15H99.3297V17.7832H101.615V12.8711H99.857V0.908203H90.3258L89.818 9.19922C89.7105 11.084 89.3883 12.2461 88.3922 12.8711H87.3863V17.7832H89.6813V15ZM112.943 12.8711H106.341V8.84766H112.581V6.8457H106.341V3.03711H112.943V0.908203H103.821V15H112.943V12.8711Z" fill="#262626"/>
</svg>
