<svg width="25" height="24" viewBox="0 0 25 24" fill="none" xmlns="http://www.w3.org/2000/svg">
<path d="M22.496 3.75H3.1206C2.70841 3.75 2.37539 4.08516 2.37539 4.5V19.5C2.37539 19.9148 2.70841 20.25 3.1206 20.25H22.496C22.9082 20.25 23.2412 19.9148 23.2412 19.5V4.5C23.2412 4.08516 22.9082 3.75 22.496 3.75ZM21.5645 6.34687V18.5625H4.05211V6.34687L3.40937 5.84297L4.32458 4.65938L5.32129 5.43984H20.2976L21.2944 4.65938L22.2096 5.84297L21.5645 6.34687ZM20.2976 5.4375L12.8083 11.2969L5.31896 5.4375L4.32225 4.65703L3.40704 5.84062L4.04978 6.34453L12.0049 12.5695C12.2337 12.7484 12.5151 12.8455 12.8048 12.8455C13.0945 12.8455 13.376 12.7484 13.6047 12.5695L21.5645 6.34687L22.2072 5.84297L21.292 4.65938L20.2976 5.4375Z" fill="#595959"/>
</svg>
