<svg width="16" height="16" viewBox="0 0 16 16" fill="none" xmlns="http://www.w3.org/2000/svg">
    <g clip-path="url(#clip0)">
        <path d="M7.33333 7.2675L7.33333 16L8.66667 16L8.66667 7.2675C9.4426 7.0095 10 6.31478 10 5.5C10 4.68522 9.4426 3.9905 8.66667 3.7325L8.66667 -1.16564e-07L7.33333 -2.33127e-07L7.33333 3.7325C6.5574 3.9905 6 4.68522 6 5.5C6 6.31478 6.5574 7.0095 7.33333 7.2675ZM8 4.875C8.3676 4.875 8.66667 5.15537 8.66667 5.5C8.66667 5.84463 8.3676 6.125 8 6.125C7.6324 6.125 7.33333 5.84463 7.33333 5.5C7.33333 5.15537 7.6324 4.875 8 4.875Z"
              fill="#595959"/>
        <path d="M13.3333 13.2675L13.3333 16L14.6667 16L14.6667 13.2675C15.4426 13.0095 16 12.3148 16 11.5C16 10.6852 15.4426 9.9905 14.6667 9.7325L14.6667 -1.16564e-07L13.3333 -2.33128e-07L13.3333 9.7325C12.5574 9.9905 12 10.6852 12 11.5C12 12.3148 12.5574 13.0095 13.3333 13.2675ZM14 10.875C14.3676 10.875 14.6667 11.1554 14.6667 11.5C14.6667 11.8446 14.3676 12.125 14 12.125C13.6324 12.125 13.3333 11.8446 13.3333 11.5C13.3333 11.1554 13.6324 10.875 14 10.875Z"
              fill="#595959"/>
        <path d="M1.33333 10.7675L1.33333 16L2.66667 16L2.66667 10.7675C3.4426 10.5095 4 9.81478 4 9C4 8.18522 3.4426 7.4905 2.66667 7.2325L2.66667 -1.16564e-07L1.33333 -2.33127e-07L1.33333 7.2325C0.5574 7.4905 6.8319e-07 8.18522 6.1196e-07 9C5.40729e-07 9.81478 0.5574 10.5095 1.33333 10.7675ZM2 8.375C2.3676 8.375 2.66667 8.65537 2.66667 9C2.66667 9.34462 2.3676 9.625 2 9.625C1.6324 9.625 1.33333 9.34462 1.33333 9C1.33333 8.65537 1.6324 8.375 2 8.375Z"
              fill="#595959"/>
    </g>
    <defs>
        <clipPath id="clip0">
            <rect width="16" height="16" fill="white"/>
        </clipPath>
    </defs>
</svg>
