<svg width="29" height="28" viewBox="0 0 29 28" fill="none" xmlns="http://www.w3.org/2000/svg">
<path fill-rule="evenodd" clip-rule="evenodd" d="M14.8083 28C22.4909 28 28.7189 21.732 28.7189 14C28.7189 6.26801 22.4909 0 14.8083 0C7.12573 0 0.897766 6.26801 0.897766 14C0.897766 21.732 7.12573 28 14.8083 28Z" fill="#3E6FA9"/>
<path d="M14.5749 19.601H15.713C15.713 19.601 16.0566 19.5628 16.2324 19.3726C16.3939 19.1977 16.3888 18.8695 16.3888 18.8695C16.3888 18.8695 16.3665 17.3326 17.0751 17.1063C17.7739 16.8832 18.671 18.5916 19.6219 19.2485C20.3409 19.7455 20.8874 19.6367 20.8874 19.6367L23.4301 19.601C23.4301 19.601 24.7601 19.5184 24.1294 18.4659C24.0778 18.3799 23.762 17.6873 22.2388 16.2644C20.6443 14.7751 20.8581 15.016 22.7786 12.4398C23.9482 10.8709 24.4157 9.91315 24.2696 9.50298C24.1304 9.11218 23.2701 9.2154 23.2701 9.2154L20.4073 9.23322C20.4073 9.23322 20.1949 9.20411 20.0376 9.29884C19.8837 9.3915 19.785 9.60798 19.785 9.60798C19.785 9.60798 19.3316 10.822 18.7276 11.8545C17.4528 14.0331 16.943 14.1484 16.7346 14.0129C16.2498 13.6976 16.3709 12.7464 16.3709 12.0705C16.3709 9.95918 16.6891 9.0789 15.7513 8.85099C15.4401 8.77542 15.2109 8.72542 14.415 8.71726C13.3934 8.70682 12.529 8.72041 12.0395 8.96179C11.7137 9.12233 11.4625 9.47997 11.6156 9.50056C11.8048 9.52591 12.2332 9.61693 12.4604 9.928C12.7539 10.3298 12.7436 11.2318 12.7436 11.2318C12.7436 11.2318 12.9122 13.7172 12.3499 14.0259C11.9641 14.2376 11.4347 13.8053 10.2981 11.8288C9.71587 10.8164 9.27612 9.69717 9.27612 9.69717C9.27612 9.69717 9.19144 9.48805 9.04019 9.37611C8.85675 9.24048 8.60042 9.19749 8.60042 9.19749L5.87986 9.21537C5.87986 9.21537 5.47153 9.22686 5.3215 9.40556C5.18802 9.56467 5.31084 9.89338 5.31084 9.89338C5.31084 9.89338 7.4406 14.9084 9.85237 17.4357C12.064 19.7531 14.5749 19.601 14.5749 19.601Z" fill="white"/>
</svg>
