<svg width="24" height="24" viewBox="0 0 24 24" fill="none" xmlns="http://www.w3.org/2000/svg">
<path d="M13.4266 10.395C13.4248 10.3901 13.4227 10.3854 13.4203 10.3807L8.07057 0.0696561C8.04835 0.0269062 8.00424 0 7.95601 0C7.90777 0 7.86366 0.0269062 7.84144 0.0696561L2.49174 10.3807C2.48931 10.3854 2.4872 10.3901 2.48542 10.395C1.9216 11.9046 1.97931 13.5433 2.64802 15.0092C3.3167 16.4752 4.51632 17.593 6.02588 18.1567C6.64416 18.3876 7.29216 18.5149 7.95207 18.5349C7.95338 18.535 7.95469 18.535 7.95601 18.535C7.95732 18.535 7.95863 18.535 7.95994 18.5349C8.6198 18.5148 9.26785 18.3875 9.88604 18.1567C11.3956 17.593 12.5952 16.4752 13.2639 15.0092C13.9326 13.5433 13.9904 11.9046 13.4266 10.395Z" fill="#BAE7FF"/>
<path d="M8.3685 17.5005C7.08614 16.2368 6.37266 14.5493 6.35939 12.7487C6.35934 12.7429 6.35967 12.7371 6.36038 12.7313L7.79817 0.153076L2.49174 10.3807C2.48931 10.3854 2.4872 10.3901 2.48541 10.395C1.9216 11.9046 1.97931 13.5433 2.64802 15.0092C3.31669 16.4752 4.51632 17.5929 6.02588 18.1567C6.64416 18.3876 7.29215 18.5149 7.95206 18.5349C7.95337 18.535 7.95468 18.535 7.956 18.535C7.95731 18.535 7.95862 18.535 7.95993 18.5349C8.44101 18.5203 8.91567 18.4479 9.3772 18.3207C9.01931 18.0827 8.68153 17.8088 8.3685 17.5005Z" fill="#91D5FF"/>
<path d="M21.707 13.1614C21.7052 13.1565 21.703 13.1518 21.7007 13.1472L19.0629 8.06306C19.0407 8.02031 18.9965 7.99341 18.9483 7.99341C18.9001 7.99341 18.856 8.02027 18.8337 8.06306L16.196 13.1472C16.1935 13.1518 16.1914 13.1565 16.1896 13.1614C15.9055 13.9221 15.9346 14.7479 16.2716 15.4865C16.6085 16.2252 17.213 16.7885 17.9738 17.0726C18.2853 17.1889 18.6119 17.253 18.9444 17.2632C18.9457 17.2632 18.947 17.2632 18.9483 17.2632C18.9496 17.2632 18.9509 17.2632 18.9522 17.2632C19.2846 17.253 19.6112 17.1889 19.9228 17.0726C21.4929 16.4862 22.2933 14.7316 21.707 13.1614Z" fill="#91D5FF"/>
<path d="M21.7069 13.1615C21.7051 13.1567 21.703 13.1519 21.7006 13.1473L19.0628 8.06319C19.0406 8.02044 18.9965 7.99353 18.9482 7.99353C18.948 7.99353 18.9477 7.99362 18.9474 7.99362L17.9091 14.0321C17.9081 14.0378 17.9075 14.0435 17.9072 14.0492C17.8633 14.943 18.1699 15.8003 18.7708 16.4632C19.0282 16.7473 19.3267 16.9806 19.6539 17.1586C19.7445 17.1341 19.8343 17.1058 19.9227 17.0727C21.4928 16.4863 22.2932 14.7317 21.7069 13.1615Z" fill="#BAE7FF"/>
<path d="M16.4489 21.1943L14.6913 17.8066C14.6691 17.7638 14.625 17.7369 14.5768 17.7369C14.5285 17.7369 14.4844 17.7638 14.4622 17.8066L12.7044 21.1943C12.7019 21.1989 12.6998 21.2038 12.698 21.2086C12.2991 22.2771 12.8437 23.4711 13.9123 23.8703C14.1243 23.9493 14.3465 23.993 14.5728 24C14.5741 24 14.5754 24 14.5768 24C14.5781 24 14.5794 24 14.5807 24C14.8068 23.993 15.029 23.9494 15.2412 23.8702C16.3097 23.4712 16.8543 22.2771 16.4553 21.2085C16.4534 21.2036 16.4513 21.1989 16.4489 21.1943Z" fill="#91D5FF"/>
<path d="M16.4552 21.2085C16.4534 21.2036 16.4512 21.1989 16.4489 21.1943L14.6913 17.8066C14.6691 17.7638 14.625 17.7369 14.5767 17.7369C14.563 17.7369 14.5498 17.7396 14.5372 17.7437L13.8156 21.989C13.8145 21.9947 13.814 22.0007 13.8137 22.0065C13.7759 22.8097 14.1502 23.5385 14.7498 23.9878C14.9174 23.969 15.0821 23.9296 15.2411 23.8703C16.3096 23.4711 16.8543 22.2771 16.4552 21.2085Z" fill="#BAE7FF"/>
</svg>
