<svg width="24" height="24" viewBox="0 0 24 24" fill="none" xmlns="http://www.w3.org/2000/svg">
<path d="M21.8906 24H2.10938C0.946289 24 0 23.0537 0 21.8906V2.10938C0 0.946289 0.946289 0 2.10938 0H21.8906C23.0537 0 24 0.946289 24 2.10938V21.8906C24 23.0537 23.0537 24 21.8906 24Z" fill="#E6F7FF"/>
<path d="M21.8906 0H12V24H21.8906C23.0537 24 24 23.0537 24 21.8906V2.10938C24 0.946289 23.0537 0 21.8906 0Z" fill="#CDE1E6"/>
<path d="M2.10938 1.40625C1.72174 1.40625 1.40625 1.72174 1.40625 2.10938V21.8906C1.40625 22.2783 1.72174 22.5938 2.10938 22.5938H21.8906C22.2783 22.5938 22.5938 22.2783 22.5938 21.8906V2.10938C22.5938 1.72174 22.2783 1.40625 21.8906 1.40625H2.10938Z" fill="#BAE7FF"/>
<path d="M21.8906 1.40625H12V22.5938H21.8906C22.2783 22.5938 22.5938 22.2783 22.5938 21.8906V2.10938C22.5938 1.72174 22.2783 1.40625 21.8906 1.40625Z" fill="#91D5FF"/>
<path d="M8.02467 11.8125C7.81117 11.8125 7.60024 11.7156 7.46199 11.5318L3.75044 6.59381C3.6382 6.44458 3.59004 6.2569 3.61623 6.07214C3.64259 5.88757 3.74129 5.72076 3.89052 5.6087C6.24782 3.84082 9.05208 2.90625 11.9999 2.90625C14.9477 2.90625 17.752 3.84082 20.1093 5.6087C20.2585 5.72076 20.3572 5.88739 20.3836 6.07214C20.4097 6.2569 20.3616 6.44458 20.2495 6.59381L16.5378 11.5318C16.3045 11.8422 15.8642 11.9048 15.5538 11.6719C14.5207 10.8972 13.2919 10.4875 11.9999 10.4875C10.7081 10.4875 9.47908 10.8972 8.446 11.6719C8.31947 11.7667 8.17134 11.8125 8.02467 11.8125Z" fill="#595959"/>
<path d="M15.5539 11.6719C15.8643 11.9048 16.3046 11.842 16.5377 11.5318L20.2494 6.59381C20.3617 6.44458 20.4099 6.2569 20.3837 6.07214C20.3573 5.88757 20.2586 5.72076 20.1094 5.6087C17.7521 3.84082 14.9478 2.90625 12 2.90625V10.4875C13.292 10.4875 14.5208 10.8972 15.5539 11.6719Z" fill="#3F4A4A"/>
<path d="M5.30945 6.32739L8.18402 10.1517C9.33154 9.44952 10.6375 9.0813 11.9999 9.0813C13.3624 9.0813 14.6683 9.44952 15.8159 10.1517L18.6904 6.32739C16.7039 5.00702 14.4052 4.3125 11.9999 4.3125C9.59467 4.3125 7.29596 5.00702 5.30945 6.32739Z" fill="#E6F7FF"/>
<path d="M15.8159 10.1517L18.6905 6.32739C16.704 5.00702 14.4053 4.3125 12 4.3125V9.0813C13.3625 9.0813 14.6684 9.44952 15.8159 10.1517Z" fill="#BAE7FF"/>
<path d="M12 10.4875C11.6116 10.4875 11.2969 10.1728 11.2969 9.78442V6.97192C11.2969 6.58356 11.6116 6.2688 12 6.2688C12.3884 6.2688 12.7031 6.58356 12.7031 6.97192V9.78442C12.7031 10.1728 12.3884 10.4875 12 10.4875Z" fill="#485959"/>
<path d="M12.7031 9.78442V6.97192C12.7031 6.58356 12.3884 6.2688 12 6.2688V10.4875C12.3884 10.4875 12.7031 10.1728 12.7031 9.78442Z" fill="#3F4A4A"/>
</svg>
